# xmcd
#
# Track frame offsets:
#	150
#	9141
#	15132
#	30161
#	38779
#	51000
#	59380
#	69024
#	76866
#	90868
#	110183
#	120191
#	126683
#
# Disc length: 1837 seconds
#
# Revision: 0
# Processed by: cddbd v1.5.2PL0 Copyright (c) Steve Scherf et al.
# Submitted via: EasyCDDAExtractor 10.2.0.1
#
DISCID=87072b0d
DTITLE=The Smoky Mountain Boys - Prayer Grounds
DYEAR=1998
DGENRE=Gospel
TTITLE0=Prayer Grounds
TTITLE1=I'll Live Again
TTITLE2=Mary's Little Lamb
TTITLE3=Grand Homecoming
TTITLE4=Deliverance Will Come
TTITLE5=Glory Is Just Ahead
TTITLE6=Be Ready For Tomorrow May Never Come
TTITLE7=Dip At Calvary
TTITLE8=Just For You And Me
TTITLE9=I See Jesus
TTITLE10=A Million Years In Glory
TTITLE11=Anchored In The Rock
TTITLE12=It Is I Thomas
EXTD=
EXTT0=
EXTT1=
EXTT2=
EXTT3=
EXTT4=
EXTT5=
EXTT6=
EXTT7=
EXTT8=
EXTT9=
EXTT10=
EXTT11=
EXTT12=
PLAYORDER=
